<?xml version="1.0" encoding="UTF-8"?><!DOCTYPE svg PUBLIC "-//W3C//DTD SVG 1.1//EN" "http://www.w3.org/Graphics/SVG/1.1/DTD/svg11.dtd"><svg xmlns="http://www.w3.org/2000/svg"><symbol id="icon_spin-loader-black" viewBox="0 0 100 100"><path fill="none" class="bk" d="M0 0h100v100H0z"/><rect x="42.5" y="42.5" width="15" height="15" rx="50%" ry="50%" fill="rgba(0,0,0,0.62)" transform="translate(0 -30)"><animate attributeName="opacity" from="1" to="0" dur="1s" begin="0s" repeatCount="indefinite"/></rect><rect x="42.5" y="42.5" width="15" height="15" rx="50%" ry="50%" fill="rgba(0,0,0,0.62)" transform="rotate(45 86.213 65)"><animate attributeName="opacity" from="1" to="0" dur="1s" begin="0.125s" repeatCount="indefinite"/></rect><rect x="42.5" y="42.5" width="15" height="15" rx="50%" ry="50%" fill="rgba(0,0,0,0.62)" transform="rotate(90 65 65)"><animate attributeName="opacity" from="1" to="0" dur="1s" begin="0.25s" repeatCount="indefinite"/></rect><rect x="42.5" y="42.5" width="15" height="15" rx="50%" ry="50%" fill="rgba(0,0,0,0.62)" transform="rotate(135 56.213 65)"><animate attributeName="opacity" from="1" to="0" dur="1s" begin="0.375s" repeatCount="indefinite"/></rect><rect x="42.5" y="42.5" width="15" height="15" rx="50%" ry="50%" fill="rgba(0,0,0,0.62)" transform="rotate(180 50 65)"><animate attributeName="opacity" from="1" to="0" dur="1s" begin="0.5s" repeatCount="indefinite"/></rect><rect x="42.5" y="42.5" width="15" height="15" rx="50%" ry="50%" fill="rgba(0,0,0,0.62)" transform="rotate(-135 43.787 65)"><animate attributeName="opacity" from="1" to="0" dur="1s" begin="0.625s" repeatCount="indefinite"/></rect><rect x="42.5" y="42.5" width="15" height="15" rx="50%" ry="50%" fill="rgba(0,0,0,0.62)" transform="rotate(-90 35 65)"><animate attributeName="opacity" from="1" to="0" dur="1s" begin="0.75s" repeatCount="indefinite"/></rect><rect x="42.5" y="42.5" width="15" height="15" rx="50%" ry="50%" fill="rgba(0,0,0,0.62)" transform="rotate(-45 13.787 65)"><animate attributeName="opacity" from="1" to="0" dur="1s" begin="0.875s" repeatCount="indefinite"/></rect></symbol></svg>